<svg id="Layer_1" data-name="Layer 1" xmlns="http://www.w3.org/2000/svg" viewBox="0 0 1000 1000"><path d="M679.34,328.05c0,.45-.08.89-.08,1.33,0,10,0,19.95,0,29.92a3.25,3.25,0,0,1-.63,1.85Q643,406.36,607.33,451.54l-37.25,47.19c-1.11,1.4-1.11,1.4-.05,2.76l75.28,95.88Q662,618.67,678.73,640a2.24,2.24,0,0,1,.51,1.28q0,15,0,30a5.15,5.15,0,0,1-.07.63h-1.11q-27.77,0-55.53,0a2,2,0,0,1-1.79-.87Q610.43,658,600.07,645q-9.35-11.78-18.69-23.54-10.78-13.53-21.57-27.05-8.88-11.17-17.73-22.37-10.91-13.74-21.83-27.48a3.25,3.25,0,0,1-.63-1.86q.06-32.64.18-65.27,0-10.38.18-20.76a2.89,2.89,0,0,1,.57-1.66c5.43-6.87,10.91-13.71,16.37-20.56q7.88-9.87,15.74-19.74c6.37-8,12.7-16,19.08-24q12.42-15.57,24.87-31.1c5.59-7,11.14-14,16.73-21.06,2.79-3.5,5.61-7,8.41-10.48Z" fill="#003afd"/><path d="M378.25,328.05,395,349q6.65,8.36,13.29,16.7c5.26,6.61,10.55,13.2,15.81,19.81q10.65,13.37,21.28,26.75,8.42,10.56,16.85,21.09,8.61,10.79,17.17,21.61a3.26,3.26,0,0,1,.62,1.85q.11,9.66.12,19.32c0,13.81,0,27.62.07,41.43,0,8.36.12,16.71.21,25.07a3.12,3.12,0,0,1-.76,2.13q-9.45,11.84-18.84,23.71-7.63,9.6-15.29,19.18l-13.91,17.53q-7.26,9.12-14.51,18.24-7.79,9.8-15.56,19.61-7.59,9.57-15.22,19.12c-2.34,2.94-4.69,5.88-7,8.86a2.22,2.22,0,0,1-2,1q-27.75,0-55.52,0h-1.13V640.47a8.09,8.09,0,0,0,.78-.77l47.39-60.39,56.6-72.12,5.53-7-.66-.88q-7.43-9.39-14.83-18.8l-73.86-93.59-20.95-26.54V328.05Z" fill="#003afd"/></svg>