<svg id="Layer_1" data-name="Layer 1" xmlns="http://www.w3.org/2000/svg" viewBox="0 0 1000 1000"><polygon points="306.5 494.06 306.5 536.17 287.89 554.79 211.12 554.79 188.52 530.16 188.52 469.57 210.88 445.22 287.96 445.22 303.96 461.21 303.96 466.71 210.61 466.71 210.61 534.3 285.22 534.3 285.22 512.23 246.34 512.23 246.34 494.06 306.5 494.06" fill="#fff"/><path d="M439.28,517.55l21-21v-29.9l-21.47-21.47H349.05l-11.86,14.56v95h22.1V518.62h52.48l28.76,36.17h28.39Zm-2.17-19.46H359.29V466.71h77.82Z" fill="#fff"/><rect x="490.94" y="445.22" width="22.09" height="109.57" fill="#fff"/><path d="M640.57,445.22H561.35l-17.63,19.92v89.65h96.85l21.14-23.88V469.09Zm-1,89h-73.8V466.71h73.8Z" fill="#fff"/><path d="M811.48,443.11c0,.15,0,.29,0,.44q0,4.95,0,9.9a1.09,1.09,0,0,1-.21.61L787.66,484l-12.33,15.61c-.36.46-.36.46,0,.91l24.9,31.72q5.53,7,11.06,14.11a.74.74,0,0,1,.17.42q0,5,0,9.93c0,.06,0,.11,0,.21H792.69a.66.66,0,0,1-.59-.29L785.26,548q-3.09-3.9-6.19-7.79c-2.37-3-4.76-6-7.13-9q-2.94-3.71-5.87-7.4l-7.22-9.09a1.08,1.08,0,0,1-.21-.62q0-10.8.06-21.6,0-3.42.06-6.86a.89.89,0,0,1,.19-.55c1.79-2.27,3.61-4.54,5.41-6.8l5.21-6.54c2.11-2.64,4.2-5.3,6.31-7.95l8.23-10.28,5.54-7c.92-1.16,1.85-2.31,2.78-3.47Z" fill="#003afd"/><path d="M711.87,443.11l5.52,6.93,4.4,5.52,5.23,6.56,7,8.85,5.58,7,5.68,7.16a1.08,1.08,0,0,1,.2.61q0,3.19,0,6.39c0,4.57,0,9.14,0,13.71,0,2.76,0,5.53.06,8.29a1,1,0,0,1-.25.71l-6.23,7.84c-1.68,2.12-3.37,4.23-5.06,6.35q-2.31,2.89-4.6,5.8l-4.8,6-5.15,6.49c-1.68,2.11-3.36,4.21-5,6.32-.78,1-1.56,2-2.32,2.93a.73.73,0,0,1-.65.32H692.82V546.47a3,3,0,0,0,.25-.25l15.68-20,18.73-23.86,1.83-2.33-.22-.29-4.91-6.22q-12.21-15.48-24.43-31l-6.93-8.78V443.11Z" fill="#003afd"/></svg>