<svg id="Layer_1" data-name="Layer 1" xmlns="http://www.w3.org/2000/svg" viewBox="0 0 1000 1000"><path d="M287.28,471.34c-6.42-13.06-18.38-20.89-32-20.91h0c-13.71,0-25.75,7.84-32.22,21l-36.91,78.18h15.1l34.36-72.44c4.2-8.08,11.4-13,19.27-13,8-.1,15.49,4.76,20,13l.11.21,33.87,72.3h15.5Z" fill="#fff"/><path d="M407.23,450.48H340.61v13.61l31.37.06q17.59.06,35.25.08c9.27,0,14.11,7.16,14.11,14.25a14.62,14.62,0,0,1-3.52,9.69,13.52,13.52,0,0,1-10.59,4.56c-6.48,0-13,.07-19.34.14s-13,.14-19.65.14c-21.95,0-27.15,15.36-27.63,28.28v28.28h13.46V521.22a14.44,14.44,0,0,1,14.17-14.32h39c8.52,0,15.65-3,20.58-8.69a29.6,29.6,0,0,0,6.89-19.52C434.7,465.1,426.1,450.48,407.23,450.48Z" fill="#fff"/><path d="M479.23,464.09h65.06V450.48H479.23c-10.89,0-20.19,6.1-24.87,16.32-4.76,10.43-3.3,22,3.84,30.32l1.86,2.15-1.6,2.33c-7.32,10.8-8.49,23.9-3,34.2,4.59,8.66,13.26,13.63,23.8,13.63h65.06V535.68H479.23c-9.16,0-14-7.26-14-14.43a15,15,0,0,1,3.44-9.73,13.57,13.57,0,0,1,10.51-4.62h65.06V493H479.23c-9.19,0-14-7.19-14-14.29a15.32,15.32,0,0,1,3.48-9.89A13.47,13.47,0,0,1,479.23,464.09Z" fill="#fff"/><path d="M643.43,515.31A56.84,56.84,0,0,0,633.85,502l-2.63-2.83,2.95-2.5a38.57,38.57,0,0,0,9.27-12.12l16.44-34.11H644.56l-13.22,28c-4.22,8.36-11.55,13.38-19.61,13.41h-.08c-8.08,0-15.46-5-19.78-13.39l-.06-.11-13.18-27.94H563.32l16.45,34.12a41.73,41.73,0,0,0,9.63,12.9l3.23,2.9-3.39,2.72a34.85,34.85,0,0,0-9.48,12.2l-16.45,34.25h15.32l13.24-28.19C596.19,513,603.57,508,611.65,508h.08c8.06,0,15.39,5,19.61,13.4l0,.1,13.18,28.07h15.33Z" fill="#fff"/><path d="M799.5,464.48a46.31,46.31,0,0,1,14.37,33.69,47.52,47.52,0,0,1-14.37,34.31,5,5,0,0,1-1.49,1.24l7.31,15.85H784.88l-2.72-6.19a51.6,51.6,0,0,1-17.1,3,49.42,49.42,0,0,1-34.43-13.87,47.89,47.89,0,0,1-14.24-34.31,46.66,46.66,0,0,1,14.24-33.69,49.35,49.35,0,0,1,68.87,0Zm-42.36,49.79L757,495.94c20.94-.37,31.09,17.22,32.21,20.07a28,28,0,0,0,6.07-17.84,28.38,28.38,0,0,0-8.92-20.56,30,30,0,0,0-21.31-8.67,30.52,30.52,0,0,0-21.42,8.67A29.12,29.12,0,0,0,735,498.17a29.66,29.66,0,0,0,8.67,21.06c5.45,5.57,13,8.54,21.42,8.54a31,31,0,0,0,9.05-1.11C771,520.59,766.18,514,757.14,514.27Z" fill="#c6ff34"/><rect x="678.91" y="450.49" width="18.46" height="99.09" fill="#c6ff34"/></svg>